<?xml version="1.0" standalone="no"?>
<!DOCTYPE svg PUBLIC "-//W3C//DTD SVG 20010904//EN"
 "http://www.w3.org/TR/2001/REC-SVG-20010904/DTD/svg10.dtd">
<svg version="1.0" xmlns="http://www.w3.org/2000/svg"
 width="700.000000pt" height="700.000000pt" viewBox="0 0 700.000000 700.000000"
 preserveAspectRatio="xMidYMid meet">
<metadata>
Created by potrace 1.11, written by Peter Selinger 2001-2013
</metadata>
<g transform="translate(0.000000,700.000000) scale(0.100000,-0.100000)"
fill="#000000" stroke="none">
<path d="M3775 6814 c-16 -2 -73 -9 -125 -15 -283 -32 -541 -108 -876 -259
-339 -152 -555 -300 -784 -536 -370 -382 -590 -843 -676 -1418 -21 -144 -29
-476 -15 -632 54 -588 266 -1137 623 -1612 106 -140 148 -182 185 -182 17 0
42 9 57 21 34 27 34 67 0 139 -53 112 -164 393 -150 379 26 -26 122 -185 147
-242 98 -232 87 -581 -30 -949 -37 -115 -38 -132 -6 -163 31 -32 76 -32 109
-2 38 34 106 266 135 457 25 161 12 163 107 -16 117 -219 223 -392 330 -542
50 -70 88 -128 85 -129 -137 -37 -207 -59 -254 -80 -54 -25 -60 -31 -87 -89
-73 -162 -209 -360 -362 -528 -90 -98 -101 -124 -75 -160 12 -16 53 -18 617
-21 333 -1 622 -3 643 -3 20 0 99 0 175 0 75 1 151 -2 169 -6 47 -12 73 19 73
87 0 66 75 394 95 415 2 2 56 -29 119 -68 103 -65 117 -76 125 -109 6 -20 23
-90 40 -156 30 -122 50 -155 90 -155 31 0 61 30 61 61 0 38 -78 349 -91 366
-6 6 -52 38 -102 69 -51 31 -93 58 -95 59 -2 2 31 56 72 121 42 64 76 127 76
138 0 12 -15 47 -34 78 l-35 57 43 25 c119 70 190 239 172 412 l-6 61 107 7
c293 18 604 88 871 195 36 14 52 17 52 8 0 -6 -140 -79 -311 -162 -192 -92
-315 -157 -321 -169 -7 -13 -8 -82 -4 -213 l8 -193 -149 -72 c-134 -66 -148
-76 -151 -101 -2 -16 15 -110 39 -210 l42 -182 -57 -152 c-31 -84 -56 -161
-56 -171 0 -44 74 -72 106 -40 21 21 134 325 134 360 0 17 -16 100 -36 185
-20 85 -32 158 -27 162 4 5 60 32 123 61 63 29 126 63 139 74 l23 21 -7 200
-6 200 248 119 c136 66 251 121 254 123 4 2 36 -70 72 -159 l65 -162 -122
-183 c-66 -100 -123 -183 -126 -183 -3 0 -51 93 -105 206 -55 113 -108 210
-117 215 -43 23 -98 -3 -98 -48 0 -11 25 -72 55 -135 l55 -116 -40 -106 c-70
-183 -155 -513 -191 -735 l-12 -74 28 -24 c29 -26 70 -25 90 1 8 10 139 15
617 20 l607 8 29 -22 c37 -28 74 -21 99 16 16 24 16 29 -1 72 -52 133 -135
382 -197 587 -38 127 -72 238 -75 248 -5 16 -3 17 14 8 31 -17 66 -13 94 9 24
18 25 26 31 147 6 138 23 233 63 358 26 80 94 238 100 232 2 -2 -32 -127 -76
-280 -85 -295 -86 -307 -38 -341 27 -19 68 -21 90 -3 26 19 124 143 193 242
406 584 566 1455 444 2430 -40 324 -123 675 -222 940 -209 560 -450 970 -746
1266 -235 234 -464 379 -756 477 -200 68 -548 135 -835 161 -105 10 -483 13
-555 5z m547 -1984 c36 -47 106 -131 156 -187 l90 -102 234 -468 c241 -481
312 -634 355 -761 20 -57 31 -76 54 -87 36 -19 73 -11 99 22 18 24 20 41 20
214 0 104 4 189 8 189 4 0 21 -39 36 -87 76 -235 177 -499 197 -515 24 -20 70
-23 99 -8 11 6 26 33 35 63 18 63 61 314 71 414 7 78 11 83 85 83 115 0 201
-67 239 -187 17 -53 22 -94 23 -188 1 -250 -61 -363 -230 -413 -37 -11 -85
-24 -106 -27 -50 -10 -87 -40 -87 -72 0 -39 27 -63 72 -63 35 0 38 -2 38 -29
0 -49 -50 -324 -61 -338 -20 -23 -245 -152 -370 -212 -553 -262 -1193 -320
-1847 -166 -100 24 -424 127 -448 143 -22 15 -172 201 -235 292 -132 190 -248
410 -323 614 -42 110 -101 319 -112 392 l-7 48 118 -122 c167 -173 438 -372
507 -372 61 0 100 82 65 135 -26 39 -66 152 -95 275 -67 275 -104 579 -136
1115 l-4 70 16 -35 c142 -307 284 -578 430 -823 75 -124 98 -144 151 -126 52
18 62 51 50 158 -6 51 -9 97 -7 103 4 11 103 -149 181 -292 55 -100 99 -218
108 -290 12 -99 64 -134 135 -91 109 66 275 682 315 1166 12 141 7 605 -7 655
-6 22 -5 23 8 10 8 -8 44 -53 80 -100z m-282 -3134 l145 -11 7 -45 c14 -91 -7
-202 -49 -258 -23 -31 -78 -72 -95 -72 -4 0 -41 52 -83 115 -41 63 -84 119
-95 125 -74 40 -132 -40 -77 -107 37 -44 117 -167 117 -178 -1 -10 -561 -275
-569 -269 -2 2 8 19 23 38 14 19 26 38 26 42 0 4 84 151 188 326 l187 320 65
-7 c36 -4 130 -12 210 -19z m-852 -191 c42 -36 105 -85 139 -108 34 -23 63
-46 63 -50 0 -5 -24 -49 -52 -98 -58 -99 -51 -95 -179 -103 -85 -6 -87 -5 -93
18 -10 40 -44 325 -52 431 l-7 100 52 -62 c29 -35 87 -92 129 -128z m2615 65
c19 -58 44 -128 55 -156 l20 -51 -70 21 -70 20 6 68 c3 38 9 100 12 139 3 38
8 69 9 67 2 -2 19 -50 38 -108z m-1776 -493 c9 -20 5 -33 -33 -92 -24 -38 -46
-70 -49 -73 -2 -2 10 39 28 92 17 53 34 96 38 96 3 0 11 -10 16 -23z"/>
<path d="M4752 3784 c-20 -14 -22 -23 -22 -117 0 -214 82 -585 192 -865 41
-107 67 -142 103 -142 28 0 65 35 65 61 0 12 -20 71 -44 132 -102 256 -186
631 -186 835 0 59 -4 76 -20 92 -24 24 -57 26 -88 4z"/>
<path d="M3093 3504 c-16 -26 -16 -32 6 -138 54 -259 141 -505 259 -730 49
-94 99 -156 124 -156 27 0 68 40 68 67 0 14 -16 52 -36 84 -117 194 -234 509
-289 779 -20 98 -35 120 -81 120 -25 0 -38 -7 -51 -26z"/>
</g>
</svg>
