<?xml version="1.0" encoding="UTF-8" standalone="no"?>
<svg
   xmlns="http://www.w3.org/2000/svg"
   width="210mm"
   height="210mm"
   viewBox="0 0 210 210"
   version="1.1"
   id="svg8">
  <g
     id="layer3"
     style="display:inline">
    <path
       style="fill:#c57d4e;fill-opacity:1;stroke:none;stroke-width:0.26458332px;stroke-linecap:butt;stroke-linejoin:miter;stroke-opacity:1"
       d="m 66.416475,133.2974 -9.822153,-12.62848 4.911078,20.81362 c 0,0 -73.900024,-109.914585 59.40065,-134.9376989 0,0 73.19845,-8.652851 82.08516,83.4883159 0,0 9.12057,43.731973 -17.3057,80.214263 l 4.44335,-23.61995 c 0,0 -12.16076,9.35444 -9.58829,25.95856 l -8.18513,-21.74906 -1.40317,20.11203 -62.44084,3.74178 -20.345895,-22.45064 0.935443,23.61994 C 78.03371,160.60985 69.093031,140.54709 66.416475,133.2974 Z"
       id="path47" />
    <path
       style="fill:#ffe7cb;fill-opacity:1;stroke:none;stroke-width:0.26458332px;stroke-linecap:butt;stroke-linejoin:miter;stroke-opacity:1"
       d="m 127.45416,158.55061 c 0,0 -30.401915,-1.40316 -36.482296,-8.41899 0,0 -24.555386,-25.0231 -23.386082,-52.150961 0,0 19.176588,25.958551 23.386083,22.216781 0,0 -11.22532,-32.038936 -7.015825,-64.779453 0,0 1.870887,22.684501 18.00728,46.772163 l 0.46773,-14.265507 c 0,0 15.90253,24.789247 14.73323,27.829437 0,0 15.43481,-40.691783 3.50791,-71.327552 0,0 10.05602,22.684501 20.11203,30.86963 l 16.60412,35.312982 1.63703,-21.749053 9.82215,28.063303 1.40317,-17.071844 c 0,0 18.94273,-1.637026 15.43481,14.265514 0,0 2.10475,11.22532 -12.16076,15.43481 l 2.57247,2.33861 -2.33861,11.69304 -12.39462,7.01583 4.44335,20.34589 c -2.95301,-3.98475 8.25868,0.95751 10.28988,1.40316 l 9.58829,29.46647 -120.906048,-0.46772 14.03165,-20.11203 c 0,0 20.112032,-3.97564 39.288618,-7.01583 0,0 12.62849,-0.93545 9.35444,-15.66868 z"
       id="path860" />
    <path
       style="fill:#f9f5f2;fill-opacity:1;stroke:none;stroke-width:0.26458332px;stroke-linecap:butt;stroke-linejoin:miter;stroke-opacity:1"
       d="m 111.55162,155.27656 -12.862347,23.15223 -20.345895,2.57246 -13.330065,21.04748 120.672187,0.23386 -9.58829,-30.86963 -9.35443,-2.57247 -4.91108,-13.56393 -19.17659,8.88672 0.70158,12.62848 -9.82215,4.44336 3.27405,11.69304 -2.80633,9.35443 -6.31424,-0.23386 -3.04019,-11.22532 -6.54811,-3.74177 5.14494,-8.88671 -3.04019,-4.67722 c 0,0 10.05602,-0.46773 7.71741,-15.43482 z"
       id="path864" />
    <path
       style="fill:#605146;fill-opacity:1;stroke:none;stroke-width:0.26458332px;stroke-linecap:butt;stroke-linejoin:miter;stroke-opacity:1"
       d="m 99.156992,177.49334 -20.112029,3.50791 -14.499373,21.74906 h 47.00603 l 6.78196,-27.82944 -23.152219,9.82216 z"
       id="path866" />
    <path
       style="fill:#605146;fill-opacity:1;stroke:none;stroke-width:0.26458332px;stroke-linecap:butt;stroke-linejoin:miter;stroke-opacity:1"
       d="m 152.94498,175.85632 -7.7174,26.66013 40.69178,-0.23386 -9.35443,-31.80507 -10.7576,-1.87089 -8.65285,13.79779 z"
       id="path868" />
  </g>
</svg>
