<?xml version="1.0" encoding="UTF-8"?>
<svg
    width="210mm"
    height="210mm"
    version="1.1"
    viewBox="0 0 210 210"
    xmlns="http://www.w3.org/2000/svg">
  <g>
    <path d="m66.416 133.3-9.8222-12.628 4.9111 20.814s-73.9-109.91 59.401-134.94c0 0 73.198-8.6529 82.085 83.488 0 0 9.1206 43.732-17.306 80.214l4.4434-23.62s-12.161 9.3544-9.5883 25.959l-8.1851-21.749-1.4032 20.112-62.441 3.7418-20.346-22.451 0.93544 23.62c-11.067-15.25-20.008-35.313-22.685-42.563z" fill="#c57d4e"/>
    <path d="m127.45 158.55s-30.402-1.4032-36.482-8.419c0 0-24.555-25.023-23.386-52.151 0 0 19.177 25.959 23.386 22.217 0 0-11.225-32.039-7.0158-64.779 0 0 1.8709 22.685 18.007 46.772l0.46773-14.266s15.903 24.789 14.733 27.829c0 0 15.435-40.692 3.5079-71.328 0 0 10.056 22.685 20.112 30.87l16.604 35.313 1.637-21.749 9.8222 28.063 1.4032-17.072s18.943-1.637 15.435 14.266c0 0 2.1048 11.225-12.161 15.435l2.5725 2.3386-2.3386 11.693-12.395 7.0158 4.4434 20.346c-2.953-3.9848 8.2587 0.95751 10.29 1.4032l9.5883 29.466-120.91-0.46772 14.032-20.112s20.112-3.9756 39.289-7.0158c0 0 12.628-0.93545 9.3544-15.669z" fill="#ffe7cb"/>
    <path d="m111.55 155.28-12.862 23.152-20.346 2.5725-13.33 21.047 120.67 0.23386-9.5883-30.87-9.3544-2.5725-4.9111-13.564-19.177 8.8867 0.70158 12.628-9.8222 4.4434 3.274 11.693-2.8063 9.3544-6.3142-0.23386-3.0402-11.225-6.5481-3.7418 5.1449-8.8867-3.0402-4.6772s10.056-0.46773 7.7174-15.435z" fill="#f9f5f2"/>
    <path d="m99.157 177.49-20.112 3.5079-14.499 21.749h47.006l6.782-27.829-23.152 9.8222z" fill="#605146"/>
    <path d="m152.94 175.86-7.7174 26.66 40.692-0.23386-9.3544-31.805-10.758-1.8709-8.6528 13.798z" fill="#605146"/>
  </g>
  <g transform="translate(0,-87)">
    <g transform="translate(-1.3229 46.964)">
      <g fill="none" stroke="#35312e" stroke-linecap="round" stroke-linejoin="round" stroke-width="4">
        <path d="m101.03 217.35s-13.096 0-20.847 4.009c0 0-4.009 10.156-13.898 19.778"/>
        <path d="m101.56 222.43s-6.4145 9.6217-8.2854 14.433c0 0 4.009 2.6727 9.3544 4.5436"/>
        <path d="m120.81 213.08s-8.5526 22.985-7.7508 28.331"/>
        <path d="m154.21 214.95s-4.009 6.949-7.4836 26.727"/>
        <path d="m187.09 241.41c-3.7418-8.5526-9.6217-29.934-9.6217-29.934-2.4054-1.8709-10.156-2.1382-10.156-2.1382s0.53454 26.46 1.8709 28.063c0 0-9.3544 0.8018-10.958 2.94"/>
      </g>
    </g>
    <g transform="translate(-1.3229 46.964)" fill="none" stroke="#634430" stroke-linecap="round" stroke-linejoin="round" stroke-width="5">
      <path d="m66.817 208c8.0181-22.985 1.0691-33.943 1.0691-33.943s10.958 27.529 22.985 41.694c0 0-2.94-16.303-1.3363-27.261 0 0 0 9.3544 14.967 18.976"/>
      <path d="m164.04 191.73s3.6416 15.134 7.116 17.272c0 0-0.36749-14.366 3.9088-17.573 0 0 1.8709 12.027 7.2163 21.382 0 0-1.6036-13.363 8.8199-27.261"/>
    </g>
    <g transform="translate(-1.3229 46.964)" fill="none" stroke-linecap="round" stroke-linejoin="round">
      <path d="m128.65 198.11s3.3073 12.898-6.6146 14.883" stroke="#694e4e" stroke-width="4"/>
      <g stroke="#736e6a" stroke-width="4">
        <path d="m113.32 196.24-16.838 28.598 25.123-11.76"/>
        <path d="m116.26 205.06c1.0691 0.53454 8.5526 13.363 8.5526 13.363l-5.3454 8.2854 7.2163 4.5436 2.4054 9.6217"/>
        <path d="m150.47 207.46 7.4836 15.234 9.889-14.967-5.0781-12.562-18.174 8.8199 0.26727 12.562-9.0872 4.2763 2.6727 11.493-3.4745 9.3544"/>
      </g>
      <path d="m90.604 189.29s44.099 22.183 85.259-6.6817" stroke="#694e4e" stroke-width="4"/>
      <g transform="translate(.52917)" stroke="#634430" stroke-width="5">
        <path d="m178.03 168.17s-1.4444 15.089-4.5357 21.858c-1.1249 2.4631 11.962-18.971 13.118-17.433l4.5816 6.0935"/>
        <path d="m197.68 163.2s-3.1111 8.9632-9.5143 21.029c-0.94682 1.7841 6.9799 0.079 4.5436 5.3454 0 0-3.388 11.243-5.7155 19.609l12.576-21.793"/>
      </g>
      <path d="m172.39 140.91s14.385-5.55 14.7 12.027c0.24992 13.974-7.2163 14.433-12.829 15.769" stroke="#694e4e" stroke-width="4"/>
    </g>
    <g transform="translate(-1.3229 46.964)" fill="none" stroke-linecap="round" stroke-linejoin="round">
      <path d="m69.971 138.07c0.75595 30.616 21.121 51.202 21.121 51.202-41.533-11.654-38.554-72.193-38.554-72.193-3.1715 36.568 12.095 65.768 12.095 65.768-35.952-41.958-27.241-105.09 19.135-125.96 9.5999-4.3205 29.526-14.652 67.515-5.2094 26.912 6.6891 39.825 30.609 48.146 53.165 8.3207 22.556 14.883 74.414-11.576 103.85" stroke="#634430" stroke-width="5"/>
      <g stroke="#634430" stroke-width="5">
        <path d="m63.878 93.271s-4.5252 23.107 5.8262 44.002c4.3711 8.8233 11.368 16.985 22.522 23.278 0 0-7.9375-10.205-7.9375-65.768"/>
        <path d="m84.289 94.783s-2.1127 10.716 20.033 47.625l-1.5119-15.875s15.497 21.923 14.741 27.97 17.077-32.867 4.1578-71.437c0 0 8.9297 34.349 56.885 53.531"/>
        <path d="m140.56 112.78s17.529 33.404 18.19 38.365c0 0-0.99219-9.9219 1.9844-22.159 0 0 2.9766 10.914 9.2604 27.781 0 0 10.253-38.695-7.9375-70.776"/>
      </g>
      <path d="m102.9 68.752s25.925-13.096 40.358-4.2763" stroke="#634430" stroke-width="5"/>
      <g stroke="#7c2431" stroke-width="7">
        <path d="m161.43 85.323-25.925 10.424"/>
        <path d="m167.85 104.83-23.52 8.5526"/>
      </g>
    </g>
    <g transform="translate(-1.3229 46.964)" fill="none" stroke-linecap="round" stroke-linejoin="round" stroke-width="4">
      <path d="m95.682 145.99s1.1125 6.3717 3.5242 13.702c0.25142 0.76421-0.28486-0.59931-5e-3 0.17962" stroke="#694e4e"/>
      <path d="m99.424 160.09s2.94 8.0849 6.4145 13.43" stroke="#633713"/>
    </g>
    <g transform="translate(-1.3229 46.964)" fill="none" stroke-linecap="round" stroke-linejoin="round" stroke-width="4">
      <path d="m145.13 137.97s-0.23386 7.3499 1.637 13.23" stroke="#694e4e"/>
      <path d="m146.56 150.54s2.0379 10.424 5.5124 17.64" stroke="#633713"/>
    </g>
  </g>
</svg>
