<?xml version="1.0" encoding="UTF-8" standalone="no"?>
<svg
   xmlns="http://www.w3.org/2000/svg"
   width="210mm"
   height="210mm"
   viewBox="0 0 210 210"
   version="1.1"
   id="svg8">
  <g
     id="layer1"
     style="display:inline"
     transform="translate(0,-87)">
    <g
       id="g5290"
       style="stroke:#634430;stroke-width:5;stroke-miterlimit:4;stroke-dasharray:none;stroke-opacity:1"
       transform="translate(-1.3229167,46.963542)">
      <path
         id="path3724"
         d="M 69.971452,138.07445 C 70.727404,168.69052 91.09226,189.27678 91.09226,189.27678 49.559675,177.62322 52.538689,117.08333 52.538689,117.08333 49.367192,153.65177 64.633928,182.85119 64.633928,182.85119 28.681986,140.89353 37.392753,77.762593 83.768972,56.890623 c 9.599887,-4.320502 29.526418,-14.651736 67.515088,-5.209379 26.91187,6.689139 39.82494,30.609457 48.14563,53.165106 8.32069,22.55566 14.88281,74.41407 -11.57552,103.84896"
         style="fill:none;stroke:#634430;stroke-width:5;stroke-linecap:round;stroke-linejoin:round;stroke-miterlimit:4;stroke-dasharray:none;stroke-opacity:1" />
      <g
         id="g4637">
        <path
           style="fill:none;stroke:#634430;stroke-width:5;stroke-linecap:round;stroke-linejoin:round;stroke-miterlimit:4;stroke-dasharray:none;stroke-opacity:1"
           d="m 63.877975,93.270831 c 0,0 -4.525179,23.106939 5.826207,44.001809 4.37108,8.82328 11.368397,16.98522 22.522008,23.27795 0,0 -7.9375,-10.20536 -7.9375,-65.767853"
           id="path4531" />
        <path
           style="fill:none;stroke:#634430;stroke-width:5;stroke-linecap:round;stroke-linejoin:round;stroke-miterlimit:4;stroke-dasharray:none;stroke-opacity:1"
           d="m 84.28869,94.782737 c 0,0 -2.112658,10.716083 20.03274,47.625003 l -1.51191,-15.87501 c 0,0 15.49702,21.92262 14.74107,27.97024 -0.75595,6.04762 17.07743,-32.86681 4.15775,-71.437496 0,0 8.92968,34.348586 56.88541,53.530876"
           id="path4533" />
        <path
           style="fill:none;stroke:#634430;stroke-width:5;stroke-linecap:round;stroke-linejoin:round;stroke-miterlimit:4;stroke-dasharray:none;stroke-opacity:1"
           d="m 140.55989,112.78385 c 0,0 17.52865,33.40365 18.19011,38.36459 0,0 -0.99219,-9.92188 1.98437,-22.15886 0,0 2.97657,10.91407 9.26042,27.78125 0,0 10.25261,-38.69531 -7.9375,-70.776038"
           id="path5284" />
      </g>
      <g
         id="g4627">
        <path
           id="path4537"
           d="m 178.02678,168.17496 c 0,0 -1.44442,15.08914 -4.53571,21.85778 -1.12492,2.4631 11.96162,-18.97136 13.11846,-17.43277 l 4.58157,6.09348"
           style="fill:none;stroke:#634430;stroke-width:5;stroke-linecap:round;stroke-linejoin:round;stroke-miterlimit:4;stroke-dasharray:none;stroke-opacity:1" />
        <path
           id="path4539"
           d="m 197.68155,163.19643 c 0,0 -3.11107,8.96316 -9.51426,21.02909 -0.94682,1.78414 6.97986,0.079 4.54358,5.3454 0,0 -3.388,11.24264 -5.7155,19.60891 l 12.57605,-21.79293"
           style="fill:none;stroke:#634430;stroke-width:5;stroke-linecap:round;stroke-linejoin:round;stroke-miterlimit:4;stroke-dasharray:none;stroke-opacity:1" />
      </g>
      <path
         style="fill:none;stroke:#634430;stroke-width:5;stroke-linecap:round;stroke-linejoin:round;stroke-miterlimit:4;stroke-dasharray:none;stroke-opacity:1"
         d="m 102.89877,68.751822 c 0,0 25.92514,-13.096205 40.35769,-4.276312"
         id="path5254" />
      <g
         id="g4619">
        <path
           id="path5257"
           d="M 161.43079,85.322533 135.50565,95.746045"
           style="fill:none;stroke:#7c2431;stroke-width:7;stroke-linecap:round;stroke-linejoin:round;stroke-miterlimit:4;stroke-dasharray:none;stroke-opacity:1" />
        <path
           id="path5259"
           d="m 167.84526,104.83321 -23.51972,8.55262"
           style="fill:none;stroke:#7c2431;stroke-width:7;stroke-linecap:round;stroke-linejoin:round;stroke-miterlimit:4;stroke-dasharray:none;stroke-opacity:1" />
      </g>
    </g>
    <g
       id="g4623"
       transform="translate(-1.3229167,46.963542)">
      <path
         id="path5210"
         d="m 90.604368,189.29038 c 0,0 44.099482,22.18337 85.258972,-6.68174"
         style="fill:none;stroke:#694e4e;stroke-width:4;stroke-linecap:round;stroke-linejoin:round;stroke-miterlimit:4;stroke-dasharray:none;stroke-opacity:1" />
      <path
         id="path5212"
         d="m 172.38884,140.91459 c 0,0 14.38547,-5.55003 14.69983,12.02713 0.24992,13.97384 -7.21628,14.43256 -12.82894,15.7689"
         style="fill:none;stroke:#694e4e;stroke-width:4;stroke-linecap:round;stroke-linejoin:round;stroke-miterlimit:4;stroke-dasharray:none;stroke-opacity:1" />
      <path
         style="fill:none;stroke:#694e4e;stroke-width:4;stroke-linecap:round;stroke-linejoin:round;stroke-miterlimit:4;stroke-dasharray:none;stroke-opacity:1"
         d="m 128.65365,198.11199 c 0,0 3.30729,12.89843 -6.61459,14.88281"
         id="path4669" />
    </g>
    <g
       id="g4596"
       transform="translate(-1.3229167,46.963542)">
      <path
         id="path5226"
         d="m 66.817382,207.99925 c 8.018084,-22.98518 1.069078,-33.94324 1.069078,-33.94324 0,0 10.958051,27.52877 22.985179,41.69405 0,0 -2.939964,-16.30344 -1.336347,-27.26149 0,0 0,9.35444 14.967098,18.97614"
         style="display:inline;fill:none;stroke:#634430;stroke-width:5;stroke-linecap:round;stroke-linejoin:round;stroke-miterlimit:4;stroke-dasharray:none;stroke-opacity:1" />
      <path
         id="path5230"
         d="m 163.56895,190.09219 c 0,0 4.10927,16.77115 7.58377,18.90931 0,0 -0.36749,-14.36573 3.90882,-17.57296 0,0 1.87089,12.02713 7.21628,21.38156 0,0 -1.60362,-13.36348 8.81989,-27.26149"
         style="fill:none;stroke:#634430;stroke-width:5;stroke-linecap:round;stroke-linejoin:round;stroke-miterlimit:4;stroke-dasharray:none;stroke-opacity:1" />
    </g>
    <g
       id="g4604"
       transform="translate(-1.3229167,46.963542)">
      <path
         id="path5218"
         d="m 95.682489,145.99272 c 0,0 1.112515,6.37168 3.52419,13.70233 m 0,0 c 0.251416,0.76421 -0.284858,-0.59931 -0.005,0.17962"
         style="fill:none;stroke:#694e4e;stroke-width:4;stroke-linecap:round;stroke-linejoin:round;stroke-miterlimit:4;stroke-dasharray:none;stroke-opacity:1" />
      <path
         id="path5220"
         d="m 99.424263,159.62346 c 0,0 2.939967,8.55263 6.414467,13.89802"
         style="fill:none;stroke:#633713;stroke-width:4;stroke-linecap:round;stroke-linejoin:round;stroke-miterlimit:4;stroke-dasharray:none;stroke-opacity:1" />
    </g>
    <g
       id="g4600"
       transform="translate(-1.3229167,46.963542)">
      <path
         id="path5222"
         d="m 145.12735,137.97463 c 0,0 0,6.41447 1.87089,12.2944"
         style="fill:none;stroke:#694e4e;stroke-width:4;stroke-linecap:round;stroke-linejoin:round;stroke-miterlimit:4;stroke-dasharray:none;stroke-opacity:1" />
      <path
         id="path5224"
         d="m 147.26551,150.5363 c 0,0 1.33635,10.42351 4.81085,17.63979"
         style="fill:none;stroke:#633713;stroke-width:4;stroke-linecap:round;stroke-linejoin:round;stroke-miterlimit:4;stroke-dasharray:none;stroke-opacity:1" />
    </g>
    <g
       id="g4611"
       transform="translate(-1.3229167,46.963542)">
      <g
         id="g4662">
        <path
           style="fill:none;stroke:#35312e;stroke-width:4;stroke-linecap:round;stroke-linejoin:round;stroke-miterlimit:4;stroke-dasharray:none;stroke-opacity:1"
           d="m 101.02788,217.35368 c 0,0 -13.096206,0 -20.847024,4.00904 0,0 -4.009041,10.15625 -13.898013,19.77795"
           id="path5240"/>
        <path
           style="fill:none;stroke:#35312e;stroke-width:4;stroke-linecap:round;stroke-linejoin:round;stroke-miterlimit:4;stroke-dasharray:none;stroke-opacity:1"
           d="m 101.56242,222.4318 c 0,0 -6.414468,9.6217 -8.285356,14.43255 0,0 4.009044,2.6727 9.354436,4.54359"
           id="path5244" />
        <path
           style="fill:none;stroke:#35312e;stroke-width:4;stroke-linecap:round;stroke-linejoin:round;stroke-miterlimit:4;stroke-dasharray:none;stroke-opacity:1"
           d="m 120.80582,213.07737 c 0,0 -8.55262,22.98517 -7.75081,28.33057"
           id="path5248" />
        <path
           style="fill:none;stroke:#35312e;stroke-width:4;stroke-linecap:round;stroke-linejoin:round;stroke-miterlimit:4;stroke-dasharray:none;stroke-opacity:1"
           d="m 154.21452,214.94825 c 0,0 -4.00905,6.94901 -7.48355,26.72696"
           id="path5250" />
        <path
           style="fill:none;stroke:#35312e;stroke-width:4;stroke-linecap:round;stroke-linejoin:round;stroke-miterlimit:4;stroke-dasharray:none;stroke-opacity:1"
           d="m 187.08867,241.40794 c -3.74177,-8.55263 -9.62171,-29.93419 -9.62171,-29.93419 -2.40542,-1.87089 -10.15624,-2.13816 -10.15624,-2.13816 0,0 0.53454,26.45969 1.87089,28.06331 0,0 -9.35443,0.8018 -10.95805,2.93996"
           id="path5242" />
      </g>
      <g
         id="g4592">
        <g
           id="g4667">
          <path
             style="fill:none;stroke:#736e6a;stroke-width:4;stroke-linecap:round;stroke-linejoin:round;stroke-miterlimit:4;stroke-dasharray:none;stroke-opacity:1"
             d="M 113.32228,196.23939 96.484299,224.83723 121.60763,213.07737"
             id="path5234" />
          <path
             style="fill:none;stroke:#736e6a;stroke-width:4;stroke-linecap:round;stroke-linejoin:round;stroke-miterlimit:4;stroke-dasharray:none;stroke-opacity:1"
             d="m 116.26224,205.05928 c 1.06908,0.53454 8.55263,13.36348 8.55263,13.36348 l -5.34539,8.28535 7.21628,4.54358 2.40542,9.62171"
             id="path5236" />
        </g>
        <path
           id="path5238"
           d="m 150.47274,207.46471 7.48355,15.23436 9.88897,-14.9671 -5.07812,-12.56166 -18.17433,8.81989 0.26727,12.56167 -9.08716,4.27631 2.67269,11.49259 -3.4745,9.35444"
           style="fill:none;stroke:#736e6a;stroke-width:4;stroke-linecap:round;stroke-linejoin:round;stroke-miterlimit:4;stroke-dasharray:none;stroke-opacity:1" />
      </g>
    </g>
  </g>
</svg>
